# xmcd
#
# Track frame offsets:
#	150
#	20285
#	42208
#	55152
#	75775
#	96548
#	119483
#
# Disc length: 1894 seconds
#
# Revision: 0
# Processed by: cddbd v1.5.2PL0 Copyright (c) Steve Scherf et al.
# Submitted via: dBpowerAMP V4.0
#
DISCID=4d076407
DTITLE=Justament - Justament
DYEAR=1900
DGENRE=
TTITLE0=Murumängud Munamäel
TTITLE1=Stonesoul
TTITLE2=Get back to the Country
TTITLE3=Homestreets
TTITLE4=Life is too short
TTITLE5=Viipuri
TTITLE6=Petseri tsura ja Hiitola ätt
EXTD=Justament CD-01\nRecorded at Linnahall Studio in Tallinn, Estonia, in 1993 abd 1994\nProduced by Justament and Aivar Joonas
EXTT0=
EXTT1=
EXTT2=
EXTT3=
EXTT4=
EXTT5=
EXTT6=
PLAYORDER=
